# xmcd
#
# Track frame offsets:
#	150
#	11085
#	25903
#	43835
#	56980
#	69248
#	79978
#	98287
#	114405
#	140291
#	156574
#	173992
#	194706
#
# Disc length: 2843 seconds
#
# Revision: 0
# Processed by: cddbd v1.5PL3 Copyright (c) Steve Scherf et al.
# Submitted via: dBpowerAMP V4.0
#
DISCID=b30b190d
DTITLE=Blue Love Monkey - A Crooked Mile
DYEAR=1900
DGENRE=Country
TTITLE0=Dance Hall Girls
TTITLE1=Love is an Outlaw
TTITLE2=Vicksburg Blues
TTITLE3=Little Bit of Rain
TTITLE4=Great Speckeld BIrd
TTITLE5=Killin' Jive
TTITLE6=Crooked Mile
TTITLE7=Stones in My Passway
TTITLE8=Sally
TTITLE9=What's So Good About It
TTITLE10=Fast Flyer
TTITLE11=Shake Sugaree
TTITLE12=Suki
EXTD=
EXTT0=
EXTT1=
EXTT2=
EXTT3=
EXTT4=
EXTT5=
EXTT6=
EXTT7=
EXTT8=
EXTT9=
EXTT10=
EXTT11=
EXTT12=
PLAYORDER=
